# xmcd CD database file
#
# Track frame offsets:
#	150
#	12305
#	23010
#	39962
#	57072
#	72215
#	82300
#	97282
#	108100
#	119832
#	135185
#
# Disc length: 2013 seconds
#
# Revision: 0
# Processed by: cddbd v1.5.2PL0 Copyright (c) Steve Scherf et al.
# Submitted via: CDex 2.08
#
DISCID=8d07db0b
DTITLE=Los Zafiros - Locura Azul
DYEAR=2002
DGENRE=Salsa
TTITLE0=Hermanosa habana
TTITLE1=Chaverot
TTITLE2=Sara el amor
TTITLE3=Santa barbara
TTITLE4=He Venido
TTITLE5=Cuando yo la conoci
TTITLE6=Oye Nicola
TTITLE7=Un nombre de mujer
TTITLE8=Bossa Cubana
TTITLE9=La caminadora
TTITLE10=Tema de la esperanza
EXTD=YEAR: 2002
EXTT0=
EXTT1=
EXTT2=
EXTT3=
EXTT4=
EXTT5=
EXTT6=
EXTT7=
EXTT8=
EXTT9=
EXTT10=
PLAYORDER=
